<mxfile host="app.diagrams.net" agent="Mozilla/5.0 (Windows NT 10.0; Win64; x64) AppleWebKit/537.36 (KHTML, like Gecko) Chrome/131.0.0.0 Safari/537.36 Edg/131.0.0.0" version="25.0.3">
  <diagram name="Page-1" id="8SazFHb4lPqUfUG7CR4b">
    <mxGraphModel dx="1603" dy="1515" grid="1" gridSize="10" guides="1" tooltips="1" connect="1" arrows="1" fold="1" page="1" pageScale="1" pageWidth="850" pageHeight="1100" math="0" shadow="0">
      <root>
        <mxCell id="0" />
        <mxCell id="1" parent="0" />
        <mxCell id="S6nSc5eygMtevFcIqzhv-2" value="" style="edgeStyle=orthogonalEdgeStyle;rounded=0;orthogonalLoop=1;jettySize=auto;html=1;" edge="1" parent="1" source="S6nSc5eygMtevFcIqzhv-3" target="S6nSc5eygMtevFcIqzhv-5">
          <mxGeometry relative="1" as="geometry" />
        </mxCell>
        <mxCell id="S6nSc5eygMtevFcIqzhv-3" value="&lt;font data-font-src=&quot;https://fonts.googleapis.com/css?family=Sarabun&quot; face=&quot;Sarabun&quot;&gt;Start&lt;/font&gt;" style="ellipse;whiteSpace=wrap;html=1;" vertex="1" parent="1">
          <mxGeometry x="-424.0000000000001" y="-1070" width="130" height="30" as="geometry" />
        </mxCell>
        <mxCell id="S6nSc5eygMtevFcIqzhv-4" value="" style="edgeStyle=orthogonalEdgeStyle;rounded=0;orthogonalLoop=1;jettySize=auto;html=1;" edge="1" parent="1" source="S6nSc5eygMtevFcIqzhv-5" target="S6nSc5eygMtevFcIqzhv-7">
          <mxGeometry relative="1" as="geometry" />
        </mxCell>
        <mxCell id="S6nSc5eygMtevFcIqzhv-5" value="เปิดไฟล์&amp;nbsp;a15-6.txt&amp;nbsp;&lt;span style=&quot;color: rgba(0, 0, 0, 0); font-family: monospace; font-size: 0px; text-align: start; text-wrap-mode: nowrap;&quot;&gt;%3CmxGraphModel%3E%3Croot%3E%3CmxCell%20id%3D%220%22%2F%3E%3CmxCell%20id%3D%221%22%20parent%3D%220%22%2F%3E%3CmxCell%20id%3D%222%22%20value%3D%22%E0%B8%81%E0%B8%B3%E0%B8%AB%E0%B8%99%E0%B8%94%E0%B8%95%E0%B8%B1%E0%B8%A7%E0%B9%81%E0%B8%9B%E0%B8%A3%20arr%22%20style%3D%22rounded%3D0%3BwhiteSpace%3Dwrap%3Bhtml%3D1%3B%22%20vertex%3D%221%22%20parent%3D%221%22%3E%3CmxGeometry%20x%3D%22-680%22%20y%3D%22-980%22%20width%3D%22160%22%20height%3D%2240%22%20as%3D%22geometry%22%2F%3E%3C%2FmxCell%3E%3C%2Froot%3E%3C%2FmxGraphModel%3E&lt;/span&gt;" style="rounded=0;whiteSpace=wrap;html=1;" vertex="1" parent="1">
          <mxGeometry x="-440" y="-1010" width="160" height="40" as="geometry" />
        </mxCell>
        <mxCell id="S6nSc5eygMtevFcIqzhv-6" value="" style="edgeStyle=orthogonalEdgeStyle;rounded=0;orthogonalLoop=1;jettySize=auto;html=1;" edge="1" parent="1" source="S6nSc5eygMtevFcIqzhv-7" target="S6nSc5eygMtevFcIqzhv-11">
          <mxGeometry relative="1" as="geometry" />
        </mxCell>
        <mxCell id="S6nSc5eygMtevFcIqzhv-7" value="เปิดได้หรือไม่" style="rhombus;whiteSpace=wrap;html=1;" vertex="1" parent="1">
          <mxGeometry x="-424" y="-940" width="128" height="80" as="geometry" />
        </mxCell>
        <mxCell id="S6nSc5eygMtevFcIqzhv-8" value="" style="edgeStyle=orthogonalEdgeStyle;rounded=0;orthogonalLoop=1;jettySize=auto;html=1;" edge="1" parent="1" source="S6nSc5eygMtevFcIqzhv-9" target="S6nSc5eygMtevFcIqzhv-19">
          <mxGeometry relative="1" as="geometry" />
        </mxCell>
        <mxCell id="S6nSc5eygMtevFcIqzhv-9" value="อ่านไฟล์&amp;nbsp;&amp;nbsp;a15-6.txt&amp;nbsp;" style="rounded=0;whiteSpace=wrap;html=1;" vertex="1" parent="1">
          <mxGeometry x="-439.5" y="-600" width="160" height="40" as="geometry" />
        </mxCell>
        <mxCell id="S6nSc5eygMtevFcIqzhv-11" value="Err" style="rounded=0;whiteSpace=wrap;html=1;shape=parallelogram;perimeter=parallelogramPerimeter;fixedSize=1;" vertex="1" parent="1">
          <mxGeometry x="-230" y="-920" width="160" height="40" as="geometry" />
        </mxCell>
        <mxCell id="S6nSc5eygMtevFcIqzhv-12" value="&lt;font data-font-src=&quot;https://fonts.googleapis.com/css?family=Sarabun&quot; face=&quot;Sarabun&quot;&gt;End&lt;/font&gt;" style="ellipse;whiteSpace=wrap;html=1;" vertex="1" parent="1">
          <mxGeometry x="614.9999999999999" y="-55" width="130" height="30" as="geometry" />
        </mxCell>
        <mxCell id="S6nSc5eygMtevFcIqzhv-13" value="" style="edgeStyle=orthogonalEdgeStyle;rounded=0;orthogonalLoop=1;jettySize=auto;html=1;" edge="1" parent="1">
          <mxGeometry relative="1" as="geometry">
            <mxPoint x="-359" y="-860" as="sourcePoint" />
            <mxPoint x="-359" y="-830" as="targetPoint" />
          </mxGeometry>
        </mxCell>
        <mxCell id="S6nSc5eygMtevFcIqzhv-14" value="T" style="text;html=1;align=center;verticalAlign=middle;resizable=0;points=[];autosize=1;strokeColor=none;fillColor=none;" vertex="1" parent="1">
          <mxGeometry x="-350" y="-870" width="30" height="30" as="geometry" />
        </mxCell>
        <mxCell id="S6nSc5eygMtevFcIqzhv-15" value="F" style="text;html=1;align=center;verticalAlign=middle;resizable=0;points=[];autosize=1;strokeColor=none;fillColor=none;" vertex="1" parent="1">
          <mxGeometry x="-300" y="-930" width="30" height="30" as="geometry" />
        </mxCell>
        <mxCell id="S6nSc5eygMtevFcIqzhv-17" value="" style="edgeStyle=orthogonalEdgeStyle;rounded=0;orthogonalLoop=1;jettySize=auto;html=1;" edge="1" parent="1" source="S6nSc5eygMtevFcIqzhv-18" target="S6nSc5eygMtevFcIqzhv-9">
          <mxGeometry relative="1" as="geometry" />
        </mxCell>
        <mxCell id="S6nSc5eygMtevFcIqzhv-18" value="" style="ellipse;whiteSpace=wrap;html=1;aspect=fixed;" vertex="1" parent="1">
          <mxGeometry x="-374.5" y="-670" width="30" height="30" as="geometry" />
        </mxCell>
        <mxCell id="S6nSc5eygMtevFcIqzhv-19" value="เอาข้อความใน&amp;nbsp;&amp;nbsp;a15-6.txt&amp;nbsp; ใส่ stuck&amp;nbsp; name" style="rounded=0;whiteSpace=wrap;html=1;" vertex="1" parent="1">
          <mxGeometry x="-439.5" y="-520" width="160" height="40" as="geometry" />
        </mxCell>
        <mxCell id="S6nSc5eygMtevFcIqzhv-20" value="" style="edgeStyle=orthogonalEdgeStyle;rounded=0;orthogonalLoop=1;jettySize=auto;html=1;" edge="1" parent="1" target="S6nSc5eygMtevFcIqzhv-21">
          <mxGeometry relative="1" as="geometry">
            <mxPoint x="-358.5" y="-480" as="sourcePoint" />
          </mxGeometry>
        </mxCell>
        <mxCell id="S6nSc5eygMtevFcIqzhv-21" value="เอาข้อความใน&amp;nbsp;&amp;nbsp;a15-6.txt&amp;nbsp; ใส่ stuck&amp;nbsp; age" style="rounded=0;whiteSpace=wrap;html=1;" vertex="1" parent="1">
          <mxGeometry x="-438.5" y="-440" width="160" height="40" as="geometry" />
        </mxCell>
        <mxCell id="S6nSc5eygMtevFcIqzhv-22" value="" style="edgeStyle=orthogonalEdgeStyle;rounded=0;orthogonalLoop=1;jettySize=auto;html=1;" edge="1" parent="1" target="S6nSc5eygMtevFcIqzhv-23">
          <mxGeometry relative="1" as="geometry">
            <mxPoint x="-358.5" y="-400" as="sourcePoint" />
          </mxGeometry>
        </mxCell>
        <mxCell id="S6nSc5eygMtevFcIqzhv-23" value="เอาข้อความใน&amp;nbsp;&amp;nbsp;a15-6.txt&amp;nbsp; ใส่ stuck&amp;nbsp;salary txt" style="rounded=0;whiteSpace=wrap;html=1;" vertex="1" parent="1">
          <mxGeometry x="-438.5" y="-360" width="160" height="40" as="geometry" />
        </mxCell>
        <mxCell id="S6nSc5eygMtevFcIqzhv-24" value="" style="edgeStyle=orthogonalEdgeStyle;rounded=0;orthogonalLoop=1;jettySize=auto;html=1;" edge="1" parent="1" target="S6nSc5eygMtevFcIqzhv-26">
          <mxGeometry relative="1" as="geometry">
            <mxPoint x="-358.5" y="-320" as="sourcePoint" />
          </mxGeometry>
        </mxCell>
        <mxCell id="S6nSc5eygMtevFcIqzhv-87" value="" style="edgeStyle=orthogonalEdgeStyle;rounded=0;orthogonalLoop=1;jettySize=auto;html=1;" edge="1" parent="1" source="S6nSc5eygMtevFcIqzhv-26" target="S6nSc5eygMtevFcIqzhv-86">
          <mxGeometry relative="1" as="geometry" />
        </mxCell>
        <mxCell id="S6nSc5eygMtevFcIqzhv-26" value="เอาข้อความใน&amp;nbsp;&amp;nbsp;a15-6.txt&amp;nbsp; ใส่ stuck&amp;nbsp;job" style="rounded=0;whiteSpace=wrap;html=1;" vertex="1" parent="1">
          <mxGeometry x="-438.5" y="-280" width="160" height="40" as="geometry" />
        </mxCell>
        <mxCell id="S6nSc5eygMtevFcIqzhv-27" value="" style="edgeStyle=orthogonalEdgeStyle;rounded=0;orthogonalLoop=1;jettySize=auto;html=1;" edge="1" parent="1" source="S6nSc5eygMtevFcIqzhv-29" target="S6nSc5eygMtevFcIqzhv-50">
          <mxGeometry relative="1" as="geometry" />
        </mxCell>
        <mxCell id="S6nSc5eygMtevFcIqzhv-28" value="" style="edgeStyle=orthogonalEdgeStyle;rounded=0;orthogonalLoop=1;jettySize=auto;html=1;" edge="1" parent="1" target="S6nSc5eygMtevFcIqzhv-55">
          <mxGeometry relative="1" as="geometry">
            <mxPoint x="470" y="-340" as="sourcePoint" />
          </mxGeometry>
        </mxCell>
        <mxCell id="S6nSc5eygMtevFcIqzhv-29" value="ครบทุกตัวแล้วหรือไม่" style="rhombus;whiteSpace=wrap;html=1;" vertex="1" parent="1">
          <mxGeometry x="218" y="-410" width="128" height="80" as="geometry" />
        </mxCell>
        <mxCell id="S6nSc5eygMtevFcIqzhv-30" value="" style="edgeStyle=orthogonalEdgeStyle;rounded=0;orthogonalLoop=1;jettySize=auto;html=1;" edge="1" parent="1" source="S6nSc5eygMtevFcIqzhv-31" target="S6nSc5eygMtevFcIqzhv-33">
          <mxGeometry relative="1" as="geometry" />
        </mxCell>
        <mxCell id="S6nSc5eygMtevFcIqzhv-31" value="start stuck user" style="shape=process;whiteSpace=wrap;html=1;backgroundOutline=1;" vertex="1" parent="1">
          <mxGeometry x="50" y="-1070" width="120" height="65" as="geometry" />
        </mxCell>
        <mxCell id="S6nSc5eygMtevFcIqzhv-32" value="" style="edgeStyle=orthogonalEdgeStyle;rounded=0;orthogonalLoop=1;jettySize=auto;html=1;" edge="1" parent="1" source="S6nSc5eygMtevFcIqzhv-33" target="S6nSc5eygMtevFcIqzhv-35">
          <mxGeometry relative="1" as="geometry" />
        </mxCell>
        <mxCell id="S6nSc5eygMtevFcIqzhv-33" value="กำหนดตัวแปร name" style="rounded=0;whiteSpace=wrap;html=1;" vertex="1" parent="1">
          <mxGeometry x="30" y="-975" width="160" height="40" as="geometry" />
        </mxCell>
        <mxCell id="S6nSc5eygMtevFcIqzhv-34" value="" style="edgeStyle=orthogonalEdgeStyle;rounded=0;orthogonalLoop=1;jettySize=auto;html=1;" edge="1" parent="1" source="S6nSc5eygMtevFcIqzhv-35" target="S6nSc5eygMtevFcIqzhv-38">
          <mxGeometry relative="1" as="geometry" />
        </mxCell>
        <mxCell id="S6nSc5eygMtevFcIqzhv-35" value="กำหนดตัวแปร age" style="rounded=0;whiteSpace=wrap;html=1;" vertex="1" parent="1">
          <mxGeometry x="30" y="-905" width="160" height="40" as="geometry" />
        </mxCell>
        <mxCell id="S6nSc5eygMtevFcIqzhv-36" value="" style="edgeStyle=orthogonalEdgeStyle;rounded=0;orthogonalLoop=1;jettySize=auto;html=1;" edge="1" parent="1" target="S6nSc5eygMtevFcIqzhv-39">
          <mxGeometry relative="1" as="geometry">
            <mxPoint x="109.9655172413793" y="-640" as="sourcePoint" />
          </mxGeometry>
        </mxCell>
        <mxCell id="S6nSc5eygMtevFcIqzhv-70" value="" style="edgeStyle=orthogonalEdgeStyle;rounded=0;orthogonalLoop=1;jettySize=auto;html=1;" edge="1" parent="1" source="S6nSc5eygMtevFcIqzhv-38" target="S6nSc5eygMtevFcIqzhv-69">
          <mxGeometry relative="1" as="geometry" />
        </mxCell>
        <mxCell id="S6nSc5eygMtevFcIqzhv-38" value="กำหนดตัวแปร salary" style="rounded=0;whiteSpace=wrap;html=1;" vertex="1" parent="1">
          <mxGeometry x="30" y="-835" width="160" height="40" as="geometry" />
        </mxCell>
        <mxCell id="S6nSc5eygMtevFcIqzhv-39" value="end stuck user" style="shape=process;whiteSpace=wrap;html=1;backgroundOutline=1;" vertex="1" parent="1">
          <mxGeometry x="50" y="-602.5" width="120" height="65" as="geometry" />
        </mxCell>
        <mxCell id="S6nSc5eygMtevFcIqzhv-40" value="กำหนดตัวแปร job" style="rounded=0;whiteSpace=wrap;html=1;" vertex="1" parent="1">
          <mxGeometry x="30" y="-680" width="160" height="40" as="geometry" />
        </mxCell>
        <mxCell id="S6nSc5eygMtevFcIqzhv-41" value="" style="edgeStyle=orthogonalEdgeStyle;rounded=0;orthogonalLoop=1;jettySize=auto;html=1;" edge="1" parent="1" source="S6nSc5eygMtevFcIqzhv-42" target="S6nSc5eygMtevFcIqzhv-44">
          <mxGeometry relative="1" as="geometry" />
        </mxCell>
        <mxCell id="S6nSc5eygMtevFcIqzhv-42" value="start compare" style="shape=process;whiteSpace=wrap;html=1;backgroundOutline=1;" vertex="1" parent="1">
          <mxGeometry x="270" y="-1070" width="120" height="65" as="geometry" />
        </mxCell>
        <mxCell id="S6nSc5eygMtevFcIqzhv-43" value="" style="edgeStyle=orthogonalEdgeStyle;rounded=0;orthogonalLoop=1;jettySize=auto;html=1;" edge="1" parent="1" source="S6nSc5eygMtevFcIqzhv-44">
          <mxGeometry relative="1" as="geometry">
            <mxPoint x="330" y="-905" as="targetPoint" />
          </mxGeometry>
        </mxCell>
        <mxCell id="S6nSc5eygMtevFcIqzhv-44" value="เรียงจากมากไปน้อย" style="rounded=0;whiteSpace=wrap;html=1;" vertex="1" parent="1">
          <mxGeometry x="250" y="-975" width="160" height="40" as="geometry" />
        </mxCell>
        <mxCell id="S6nSc5eygMtevFcIqzhv-45" value="end compare" style="shape=process;whiteSpace=wrap;html=1;backgroundOutline=1;" vertex="1" parent="1">
          <mxGeometry x="270" y="-905" width="120" height="65" as="geometry" />
        </mxCell>
        <mxCell id="S6nSc5eygMtevFcIqzhv-73" value="" style="edgeStyle=orthogonalEdgeStyle;rounded=0;orthogonalLoop=1;jettySize=auto;html=1;" edge="1" parent="1" source="S6nSc5eygMtevFcIqzhv-46" target="S6nSc5eygMtevFcIqzhv-72">
          <mxGeometry relative="1" as="geometry" />
        </mxCell>
        <mxCell id="S6nSc5eygMtevFcIqzhv-46" value="กำหนดตัวแปร&amp;nbsp;Average" style="rounded=0;whiteSpace=wrap;html=1;" vertex="1" parent="1">
          <mxGeometry x="-440" y="-830" width="160" height="40" as="geometry" />
        </mxCell>
        <mxCell id="S6nSc5eygMtevFcIqzhv-47" value="" style="edgeStyle=orthogonalEdgeStyle;rounded=0;orthogonalLoop=1;jettySize=auto;html=1;" edge="1" parent="1" target="S6nSc5eygMtevFcIqzhv-29">
          <mxGeometry relative="1" as="geometry">
            <mxPoint x="282" y="-460" as="sourcePoint" />
          </mxGeometry>
        </mxCell>
        <mxCell id="S6nSc5eygMtevFcIqzhv-48" value="Average += stack age" style="rounded=0;whiteSpace=wrap;html=1;" vertex="1" parent="1">
          <mxGeometry x="90" y="-100" width="160" height="40" as="geometry" />
        </mxCell>
        <mxCell id="S6nSc5eygMtevFcIqzhv-50" value="เพิ่มรอบ stuck&amp;nbsp;" style="rounded=0;whiteSpace=wrap;html=1;" vertex="1" parent="1">
          <mxGeometry x="10" y="-390" width="160" height="40" as="geometry" />
        </mxCell>
        <mxCell id="S6nSc5eygMtevFcIqzhv-51" style="edgeStyle=orthogonalEdgeStyle;rounded=0;orthogonalLoop=1;jettySize=auto;html=1;exitX=0.5;exitY=0;exitDx=0;exitDy=0;" edge="1" parent="1" source="S6nSc5eygMtevFcIqzhv-53">
          <mxGeometry relative="1" as="geometry">
            <mxPoint x="469.7586206896551" y="-199.8965517241379" as="targetPoint" />
          </mxGeometry>
        </mxCell>
        <mxCell id="S6nSc5eygMtevFcIqzhv-52" value="" style="edgeStyle=orthogonalEdgeStyle;rounded=0;orthogonalLoop=1;jettySize=auto;html=1;" edge="1" parent="1" source="S6nSc5eygMtevFcIqzhv-53" target="S6nSc5eygMtevFcIqzhv-60">
          <mxGeometry relative="1" as="geometry" />
        </mxCell>
        <mxCell id="S6nSc5eygMtevFcIqzhv-53" value="Average /= รอบของ stuck&amp;nbsp;" style="rounded=0;whiteSpace=wrap;html=1;" vertex="1" parent="1">
          <mxGeometry x="390" y="-200" width="160" height="40" as="geometry" />
        </mxCell>
        <mxCell id="S6nSc5eygMtevFcIqzhv-54" value="" style="edgeStyle=orthogonalEdgeStyle;rounded=0;orthogonalLoop=1;jettySize=auto;html=1;" edge="1" parent="1" source="S6nSc5eygMtevFcIqzhv-55" target="S6nSc5eygMtevFcIqzhv-53">
          <mxGeometry relative="1" as="geometry" />
        </mxCell>
        <mxCell id="S6nSc5eygMtevFcIqzhv-55" value="&amp;nbsp;compare" style="shape=process;whiteSpace=wrap;html=1;backgroundOutline=1;" vertex="1" parent="1">
          <mxGeometry x="410" y="-305" width="120" height="65" as="geometry" />
        </mxCell>
        <mxCell id="S6nSc5eygMtevFcIqzhv-56" value="" style="edgeStyle=orthogonalEdgeStyle;rounded=0;orthogonalLoop=1;jettySize=auto;html=1;" edge="1" parent="1" source="S6nSc5eygMtevFcIqzhv-58" target="S6nSc5eygMtevFcIqzhv-62">
          <mxGeometry relative="1" as="geometry" />
        </mxCell>
        <mxCell id="S6nSc5eygMtevFcIqzhv-57" value="" style="edgeStyle=orthogonalEdgeStyle;rounded=0;orthogonalLoop=1;jettySize=auto;html=1;" edge="1" parent="1" source="S6nSc5eygMtevFcIqzhv-58" target="S6nSc5eygMtevFcIqzhv-12">
          <mxGeometry relative="1" as="geometry" />
        </mxCell>
        <mxCell id="S6nSc5eygMtevFcIqzhv-58" value="Average &amp;gt; อายุของ stuck&amp;nbsp; age หรื้อไม่" style="rhombus;whiteSpace=wrap;html=1;" vertex="1" parent="1">
          <mxGeometry x="406" y="-80" width="128" height="80" as="geometry" />
        </mxCell>
        <mxCell id="S6nSc5eygMtevFcIqzhv-59" value="" style="edgeStyle=orthogonalEdgeStyle;rounded=0;orthogonalLoop=1;jettySize=auto;html=1;" edge="1" parent="1" source="S6nSc5eygMtevFcIqzhv-60" target="S6nSc5eygMtevFcIqzhv-58">
          <mxGeometry relative="1" as="geometry" />
        </mxCell>
        <mxCell id="S6nSc5eygMtevFcIqzhv-60" value="" style="ellipse;whiteSpace=wrap;html=1;aspect=fixed;" vertex="1" parent="1">
          <mxGeometry x="455" y="-130" width="30" height="30" as="geometry" />
        </mxCell>
        <mxCell id="S6nSc5eygMtevFcIqzhv-61" value="" style="edgeStyle=orthogonalEdgeStyle;rounded=0;orthogonalLoop=1;jettySize=auto;html=1;" edge="1" parent="1" source="S6nSc5eygMtevFcIqzhv-62" target="S6nSc5eygMtevFcIqzhv-64">
          <mxGeometry relative="1" as="geometry" />
        </mxCell>
        <mxCell id="S6nSc5eygMtevFcIqzhv-62" value="ปริ้น stuck&amp;nbsp; age" style="rounded=0;whiteSpace=wrap;html=1;" vertex="1" parent="1">
          <mxGeometry x="390" y="40" width="160" height="40" as="geometry" />
        </mxCell>
        <mxCell id="S6nSc5eygMtevFcIqzhv-63" style="edgeStyle=orthogonalEdgeStyle;rounded=0;orthogonalLoop=1;jettySize=auto;html=1;entryX=0;entryY=0.5;entryDx=0;entryDy=0;" edge="1" parent="1" source="S6nSc5eygMtevFcIqzhv-64" target="S6nSc5eygMtevFcIqzhv-60">
          <mxGeometry relative="1" as="geometry">
            <Array as="points">
              <mxPoint x="470" y="220" />
              <mxPoint x="340" y="220" />
              <mxPoint x="340" y="-115" />
            </Array>
          </mxGeometry>
        </mxCell>
        <mxCell id="S6nSc5eygMtevFcIqzhv-64" value="เพิ่มรอบ stuck&amp;nbsp;" style="rounded=0;whiteSpace=wrap;html=1;" vertex="1" parent="1">
          <mxGeometry x="390" y="110" width="160" height="40" as="geometry" />
        </mxCell>
        <mxCell id="S6nSc5eygMtevFcIqzhv-65" value="T" style="text;html=1;align=center;verticalAlign=middle;resizable=0;points=[];autosize=1;strokeColor=none;fillColor=none;" vertex="1" parent="1">
          <mxGeometry x="292" y="-340" width="30" height="30" as="geometry" />
        </mxCell>
        <mxCell id="S6nSc5eygMtevFcIqzhv-66" value="F" style="text;html=1;align=center;verticalAlign=middle;resizable=0;points=[];autosize=1;strokeColor=none;fillColor=none;" vertex="1" parent="1">
          <mxGeometry x="202" y="-410" width="30" height="30" as="geometry" />
        </mxCell>
        <mxCell id="S6nSc5eygMtevFcIqzhv-67" value="T" style="text;html=1;align=center;verticalAlign=middle;resizable=0;points=[];autosize=1;strokeColor=none;fillColor=none;" vertex="1" parent="1">
          <mxGeometry x="530" y="-70" width="30" height="30" as="geometry" />
        </mxCell>
        <mxCell id="S6nSc5eygMtevFcIqzhv-68" value="F" style="text;html=1;align=center;verticalAlign=middle;resizable=0;points=[];autosize=1;strokeColor=none;fillColor=none;" vertex="1" parent="1">
          <mxGeometry x="470" y="-10" width="30" height="30" as="geometry" />
        </mxCell>
        <mxCell id="S6nSc5eygMtevFcIqzhv-71" value="" style="edgeStyle=orthogonalEdgeStyle;rounded=0;orthogonalLoop=1;jettySize=auto;html=1;" edge="1" parent="1" source="S6nSc5eygMtevFcIqzhv-69" target="S6nSc5eygMtevFcIqzhv-40">
          <mxGeometry relative="1" as="geometry" />
        </mxCell>
        <mxCell id="S6nSc5eygMtevFcIqzhv-69" value="กำหนดตัวแปร salary txt" style="rounded=0;whiteSpace=wrap;html=1;" vertex="1" parent="1">
          <mxGeometry x="30" y="-770" width="160" height="40" as="geometry" />
        </mxCell>
        <mxCell id="S6nSc5eygMtevFcIqzhv-74" value="" style="edgeStyle=orthogonalEdgeStyle;rounded=0;orthogonalLoop=1;jettySize=auto;html=1;" edge="1" parent="1" source="S6nSc5eygMtevFcIqzhv-72" target="S6nSc5eygMtevFcIqzhv-18">
          <mxGeometry relative="1" as="geometry" />
        </mxCell>
        <mxCell id="S6nSc5eygMtevFcIqzhv-72" value="กำหนดตัวแปร&amp;nbsp;convert" style="rounded=0;whiteSpace=wrap;html=1;" vertex="1" parent="1">
          <mxGeometry x="-440" y="-750" width="160" height="40" as="geometry" />
        </mxCell>
        <mxCell id="S6nSc5eygMtevFcIqzhv-76" value="เอาข้อความใน&amp;nbsp;&amp;nbsp;a15-6.txt&amp;nbsp; ใส่ stuck&amp;nbsp;job" style="rounded=0;whiteSpace=wrap;html=1;" vertex="1" parent="1">
          <mxGeometry x="10" y="-270" width="160" height="40" as="geometry" />
        </mxCell>
        <mxCell id="S6nSc5eygMtevFcIqzhv-93" style="edgeStyle=orthogonalEdgeStyle;rounded=0;orthogonalLoop=1;jettySize=auto;html=1;entryX=0;entryY=0.5;entryDx=0;entryDy=0;" edge="1" parent="1" source="S6nSc5eygMtevFcIqzhv-77" target="S6nSc5eygMtevFcIqzhv-86">
          <mxGeometry relative="1" as="geometry">
            <Array as="points">
              <mxPoint x="-480" y="60" />
              <mxPoint x="-480" y="-195" />
            </Array>
          </mxGeometry>
        </mxCell>
        <mxCell id="S6nSc5eygMtevFcIqzhv-95" value="" style="edgeStyle=orthogonalEdgeStyle;rounded=0;orthogonalLoop=1;jettySize=auto;html=1;" edge="1" parent="1" source="S6nSc5eygMtevFcIqzhv-77" target="S6nSc5eygMtevFcIqzhv-94">
          <mxGeometry relative="1" as="geometry" />
        </mxCell>
        <mxCell id="S6nSc5eygMtevFcIqzhv-77" value="stuck&amp;nbsp;salary txt&lt;div&gt;วนครบแล้วหรือไม่&lt;/div&gt;" style="rhombus;whiteSpace=wrap;html=1;" vertex="1" parent="1">
          <mxGeometry x="-419" y="20" width="120" height="80" as="geometry" />
        </mxCell>
        <mxCell id="S6nSc5eygMtevFcIqzhv-84" value="" style="edgeStyle=orthogonalEdgeStyle;rounded=0;orthogonalLoop=1;jettySize=auto;html=1;" edge="1" parent="1" source="S6nSc5eygMtevFcIqzhv-82" target="S6nSc5eygMtevFcIqzhv-83">
          <mxGeometry relative="1" as="geometry" />
        </mxCell>
        <mxCell id="S6nSc5eygMtevFcIqzhv-82" value="stuck&amp;nbsp;salary&lt;div&gt;มี , หรือไม่&lt;/div&gt;" style="rhombus;whiteSpace=wrap;html=1;" vertex="1" parent="1">
          <mxGeometry x="-418" y="-150" width="120" height="80" as="geometry" />
        </mxCell>
        <mxCell id="S6nSc5eygMtevFcIqzhv-91" value="" style="edgeStyle=orthogonalEdgeStyle;rounded=0;orthogonalLoop=1;jettySize=auto;html=1;" edge="1" parent="1" source="S6nSc5eygMtevFcIqzhv-83" target="S6nSc5eygMtevFcIqzhv-77">
          <mxGeometry relative="1" as="geometry" />
        </mxCell>
        <mxCell id="S6nSc5eygMtevFcIqzhv-83" value="ก็อปลง convert&amp;nbsp;" style="rounded=0;whiteSpace=wrap;html=1;" vertex="1" parent="1">
          <mxGeometry x="-438.5" y="-50" width="160" height="40" as="geometry" />
        </mxCell>
        <mxCell id="S6nSc5eygMtevFcIqzhv-92" value="" style="edgeStyle=orthogonalEdgeStyle;rounded=0;orthogonalLoop=1;jettySize=auto;html=1;" edge="1" parent="1" source="S6nSc5eygMtevFcIqzhv-86" target="S6nSc5eygMtevFcIqzhv-82">
          <mxGeometry relative="1" as="geometry" />
        </mxCell>
        <mxCell id="S6nSc5eygMtevFcIqzhv-86" value="" style="ellipse;whiteSpace=wrap;html=1;aspect=fixed;" vertex="1" parent="1">
          <mxGeometry x="-373.5" y="-210" width="30" height="30" as="geometry" />
        </mxCell>
        <mxCell id="S6nSc5eygMtevFcIqzhv-97" value="" style="edgeStyle=orthogonalEdgeStyle;rounded=0;orthogonalLoop=1;jettySize=auto;html=1;" edge="1" parent="1" source="S6nSc5eygMtevFcIqzhv-94" target="S6nSc5eygMtevFcIqzhv-96">
          <mxGeometry relative="1" as="geometry" />
        </mxCell>
        <mxCell id="S6nSc5eygMtevFcIqzhv-94" value="แปลงเป็นจำนวนเต็ม" style="rounded=0;whiteSpace=wrap;html=1;" vertex="1" parent="1">
          <mxGeometry x="-439" y="130" width="160" height="40" as="geometry" />
        </mxCell>
        <mxCell id="S6nSc5eygMtevFcIqzhv-96" value="เก็บไว้ใน stuck salary" style="rounded=0;whiteSpace=wrap;html=1;" vertex="1" parent="1">
          <mxGeometry x="-438.5" y="200" width="160" height="40" as="geometry" />
        </mxCell>
      </root>
    </mxGraphModel>
  </diagram>
</mxfile>
